<svg width="256" height="256" viewBox="0 0 256 256" fill="none" xmlns="http://www.w3.org/2000/svg">
<mask id="mask0_101_10" style="mask-type:alpha" maskUnits="userSpaceOnUse" x="0" y="0" width="256" height="256">
<circle cx="128" cy="128" r="128" fill="#65C3E1"/>
</mask>
<g mask="url(#mask0_101_10)">
<circle cx="128" cy="128" r="128" fill="#4C90C1"/>
<circle cx="128" cy="99" r="128" fill="#65C3E1"/>
<path d="M126.787 124.11H113.516V158H89V62H129.022C141.082 62 150.512 64.5275 157.31 69.5824C164.108 74.6374 167.508 81.7802 167.508 91.011C167.508 97.6923 166.064 103.231 163.177 107.626C160.337 112.022 155.867 115.582 149.767 118.308L171 157.011V158H144.738L126.787 124.11ZM113.516 106.242H129.022C133.679 106.242 137.171 105.099 139.499 102.813C141.874 100.484 143.061 97.2527 143.061 93.1209C143.061 88.989 141.874 85.7582 139.499 83.4286C137.124 81.0549 133.632 79.8681 129.022 79.8681H113.516V106.242Z" fill="#ECECEC"/>
</g>
</svg>
